<svg width="60" height="60" viewBox="0 0 60 60" fill="none" xmlns="http://www.w3.org/2000/svg">
<g id="from">
<circle id="Ellipse 12" cx="30" cy="30" r="29.5" fill="white" stroke="#1FA538"/>
<path id="Vector" d="M20.7816 23.4331V22.8544L17.8066 24.5883C16.7732 25.1855 16.1414 26.2708 16.1414 27.4341V29.8904L11.8579 32.2896C11.0387 32.7466 10.7549 33.7645 11.2315 34.559L15.515 41.7567C15.9861 42.5512 17.0356 42.8212 17.8548 42.3643M20.7816 23.4331L18.0584 25.0203L18.0568 25.0212C17.1744 25.5311 16.6414 26.4535 16.6414 27.4341V29.8904V30.1835L16.3858 30.3267L12.1023 32.7259L12.1015 32.7263C11.521 33.0501 11.3335 33.757 11.6603 34.3018L11.6611 34.3033L15.9446 41.501L15.945 41.5016C16.2733 42.0551 17.0205 42.2571 17.6112 41.9276M20.7816 23.4331L21.2816 23.1417V28.8778C21.2816 30.9394 23.0111 32.6168 25.1368 32.6168C27.2624 32.6168 28.9919 30.9394 28.9919 28.8778V26.4696H29.4919M20.7816 23.4331V28.8778C20.7816 31.2299 22.7495 33.1168 25.1368 33.1168C27.5241 33.1168 29.4919 31.2299 29.4919 28.8778V26.4696M17.6112 41.9276L17.6105 41.928L17.8548 42.3643M17.6112 41.9276L17.8548 42.3643M17.6112 41.9276L23.1469 38.8277L23.2608 38.764H23.3912H30.7053C32.3338 38.764 33.6321 37.4831 33.6321 35.9404V35.4404H34.1321H34.9888C35.6749 35.4404 36.2022 34.9073 36.2022 34.2786V30.955V30.455H36.7022H37.1305C37.5811 30.455 37.9156 30.1089 37.9156 29.7087V27.216C37.9156 26.8157 37.5811 26.4696 37.1305 26.4696H29.4919M17.8548 42.3643L23.3912 39.264H30.7053C32.5954 39.264 34.1321 37.7736 34.1321 35.9404H34.6321H34.9888C35.9365 35.9404 36.7022 35.1978 36.7022 34.2786V31.455V30.955H37.1305C37.8427 30.955 38.4156 30.3993 38.4156 29.7087V27.216C38.4156 26.5253 37.8427 25.9696 37.1305 25.9696H29.4919V26.4696M40.629 27.8429V27.216C40.629 25.3209 39.0467 23.8078 37.1305 23.8078H27.2785H26.7785V24.3078V28.8778C26.7785 29.735 26.0584 30.455 25.1368 30.455C24.2151 30.455 23.495 29.735 23.495 28.8778V22.3189C23.495 21.924 23.702 21.5518 24.0549 21.3406L24.057 21.3393L25.8488 20.2551C25.8491 20.2549 25.8494 20.2548 25.8497 20.2546C26.3191 19.9736 26.8566 19.8225 27.407 19.8225H32.8792H33.0096L33.1235 19.7587L38.6592 16.6588C38.6593 16.6588 38.6593 16.6587 38.6594 16.6587C39.2501 16.3294 39.9972 16.5314 40.3254 17.0848L40.3258 17.0855L44.6089 24.2824C44.6089 24.2825 44.609 24.2826 44.609 24.2827C44.933 24.8293 44.7486 25.5328 44.1672 25.8611C44.1671 25.8612 44.1669 25.8612 44.1668 25.8613L40.629 27.8429Z" fill="#1FA538" stroke="#1FA538"/>
</g>
</svg>
