<svg width="34" height="43" viewBox="0 0 34 43" fill="none" xmlns="http://www.w3.org/2000/svg">
<path id="Vector" d="M15.2529 42.1324C2.38797 24.442 0 22.6265 0 16.125C0 7.21938 7.61113 0 17 0C26.3889 0 34 7.21938 34 16.125C34 22.6265 31.612 24.442 18.7471 42.1324C17.9029 43.2892 16.0971 43.2891 15.2529 42.1324ZM17 22.8437C20.912 22.8437 24.0833 19.8357 24.0833 16.125C24.0833 12.4143 20.912 9.40625 17 9.40625C13.088 9.40625 9.91667 12.4143 9.91667 16.125C9.91667 19.8357 13.088 22.8437 17 22.8437Z" fill="#1D4486"/>
</svg>
