<svg width="46" height="40" viewBox="0 0 46 40" fill="none" xmlns="http://www.w3.org/2000/svg">
<path id="Vector" d="M44.5449 2.27126C41.7632 0.858792 38.9793 0.321411 36.1969 0.321411C27.364 0.320543 18.5319 5.73342 9.69911 5.73342C7.48391 5.73342 5.27015 5.39311 3.05495 4.54233C2.80611 4.44683 2.55655 4.40169 2.31273 4.40169C1.07856 4.40169 0 5.55806 0 7.16325V34.706C0 35.8025 0.518481 36.8416 1.35106 37.2635C4.13279 38.6769 6.91667 39.2143 9.69911 39.2143C18.5319 39.2143 27.3648 33.8014 36.1976 33.8014C38.4128 33.8014 40.6265 34.1417 42.8417 34.9925C43.0906 35.088 43.3401 35.1331 43.584 35.1331C44.8181 35.1331 45.8967 33.9768 45.8967 32.3716V4.82968C45.896 3.73235 45.3775 2.69405 44.5449 2.27126ZM3.4422 9.02195C4.88505 9.4595 6.39102 9.67914 7.94 9.7972C7.51834 12.3487 5.66529 14.2716 3.4422 14.2716V9.02195ZM3.4422 33.7641V29.6161C5.90696 29.6161 7.90128 31.9835 8.011 34.9465C6.39532 34.7893 4.88505 34.3987 3.4422 33.7641ZM22.948 28.102C19.779 28.102 17.211 24.3699 17.211 19.7678C17.211 15.1649 19.7797 11.4337 22.948 11.4337C26.1162 11.4337 28.685 15.1649 28.685 19.7678C28.685 24.3716 26.1155 28.102 22.948 28.102ZM42.4538 30.5137C41.1974 30.1326 39.8929 29.919 38.5584 29.781C38.9793 27.5169 40.5305 25.798 42.4538 25.5028V30.5137ZM42.4538 10.016C40.2386 9.67653 38.5196 7.43759 38.4515 4.67255C39.8528 4.86094 41.183 5.2134 42.4538 5.77162V10.016Z" fill="#1D8628"/>
</svg>
