<svg width="30" height="33" viewBox="0 0 30 33" fill="none" xmlns="http://www.w3.org/2000/svg">
<path id="Vector" d="M29.1738 9.15432L26.4725 12.1257C26.1971 12.4287 25.7518 12.4287 25.4764 12.1257L18.9721 4.97115C18.6967 4.6682 18.6967 4.17834 18.9721 3.8754L21.6734 0.903991C22.7692 -0.30133 24.5505 -0.30133 25.6521 0.903991L29.1738 4.77778C30.2754 5.9831 30.2754 7.94255 29.1738 9.15432ZM16.6517 6.42785L1.2643 23.3539L0.0220501 31.1853C-0.14788 32.2424 0.69005 33.1576 1.65103 32.9771L8.7705 31.6042L24.1579 14.6782C24.4333 14.3752 24.4333 13.8854 24.1579 13.5824L17.6537 6.42785C17.3725 6.1249 16.9271 6.1249 16.6517 6.42785ZM7.27043 21.9037C6.94815 21.5492 6.94815 20.9819 7.27043 20.6274L16.2943 10.7013C16.6166 10.3468 17.1322 10.3468 17.4545 10.7013C17.7768 11.0558 17.7768 11.623 17.4545 11.9775L8.43064 21.9037C8.10836 22.2582 7.59271 22.2582 7.27043 21.9037ZM5.1551 27.3244H7.96773V29.6641L4.18826 30.3925L2.36591 28.3879L3.02805 24.2305H5.1551V27.3244Z" fill="#1D4486"/>
</svg>
