<svg width="60" height="60" viewBox="0 0 60 60" fill="none" xmlns="http://www.w3.org/2000/svg">
<g id="to">
<circle id="Ellipse 13" cx="30" cy="30" r="29.5" fill="white" stroke="#1FA538"/>
<path id="Vector" d="M43.836 25.3638L43.8359 25.3635C43.6276 24.4852 42.9906 23.7391 42.1227 23.3783L42.1213 23.3777C41.2731 23.022 40.3385 23.0804 39.5586 23.5224C38.4472 24.1589 37.6178 25.1589 37.2082 26.3358C37.2081 26.3361 37.208 26.3364 37.2079 26.3367L36.6035 28.0953L36.5455 28.2641L36.3936 28.358L35.5369 28.8877L34.774 29.3594V28.4624V23.4774C34.774 23.3109 34.6269 23.1466 34.4173 23.1466H25.8507C25.6411 23.1466 25.494 23.3109 25.494 23.4774V28.4624V29.3564L24.7323 28.8884L23.8703 28.3587L23.7175 28.2649L23.6592 28.0953L23.0542 26.3349L23.054 26.3344C22.6505 25.1557 21.8177 24.1604 20.7047 23.5227C19.9185 23.08 18.9889 23.0223 18.1414 23.3777L18.1399 23.3783C17.2721 23.739 16.6352 24.485 16.4268 25.3632L43.836 25.3638ZM43.836 25.3638L44.8265 29.528L43.836 25.3638ZM46.6818 40.4975L46.6823 40.4985C46.9233 41.0795 46.6382 41.7557 46.0092 42.0012L46.0062 42.0024C45.8614 42.0601 45.7106 42.0864 45.5539 42.0864C45.0622 42.0864 44.6112 41.8011 44.426 41.3521L44.4259 41.3519L42.992 37.8777L43.0663 37.2218L44.6263 35.5137L46.6818 40.4975ZM15.4416 29.5278L16.4267 25.3635L39.9064 41.0506C39.8402 41.6336 39.3242 42.0864 38.7006 42.0864C38.662 42.0864 38.6262 42.0835 38.5601 42.0782C37.8891 42.0047 37.4256 41.4224 37.4949 40.7986C37.4949 40.7985 37.4949 40.7984 37.4949 40.7984L38.0353 35.9833C38.0353 35.9827 38.0354 35.9822 38.0355 35.9816C38.1035 35.413 38.3469 34.8816 38.7441 34.443C38.7442 34.4429 38.7444 34.4427 38.7445 34.4425L41.0619 31.8992L41.2441 31.6993L41.1765 31.4374L40.2342 27.787L39.8182 26.1755L39.2772 27.7494L38.9131 28.8087L38.9119 28.8122C38.7308 29.3522 38.3872 29.8265 37.7978 30.2471L35.0774 31.9251C35.0772 31.9253 35.0769 31.9254 35.0767 31.9255C34.93 32.0149 34.6304 32.091 34.397 32.1113H25.871C25.6377 32.091 25.3381 32.0149 25.1914 31.9256C25.1911 31.9254 25.1909 31.9253 25.1906 31.9251L22.4702 30.2471C21.8819 29.8271 21.5372 29.3478 21.3557 28.8111L21.3549 28.8088L20.9908 27.7494L20.4499 26.1755L20.0339 27.787L19.0915 31.4374L19.024 31.6993L19.2061 31.8992L21.5235 34.4425C21.5237 34.4428 21.5239 34.443 21.5241 34.4432C21.9212 34.8817 22.1646 35.4131 22.2326 35.9816C22.2326 35.9822 22.2327 35.9827 22.2328 35.9833L22.7731 40.7984C22.7731 40.7984 22.7731 40.7985 22.7731 40.7986C22.8425 41.4237 22.383 42.0047 21.7081 42.0782C21.6419 42.0835 21.6061 42.0864 21.5674 42.0864C20.9407 42.0864 20.4279 41.6305 20.3616 41.0503C20.3616 41.0502 20.3616 41.0501 20.3616 41.05L19.8209 36.2422L19.8028 36.0809L19.6933 35.961L16.0956 32.0201C16.0956 32.0201 16.0955 32.02 16.0955 32.02C15.4724 31.3362 15.2338 30.4043 15.4416 29.528L15.4416 29.5278ZM40.4471 36.2422L39.9064 41.0503L44.8265 29.5283C45.0338 30.4027 44.7916 31.3353 44.1718 32.0207C44.1716 32.021 44.1714 32.0212 44.1712 32.0214L40.5747 35.961L40.4653 36.0809L40.4471 36.2422ZM13.5862 40.4975L15.6417 35.5137L17.2017 37.2218L17.2761 37.8777L15.8427 41.3506C15.8426 41.3508 15.8425 41.351 15.8424 41.3513C15.6004 41.9314 14.9086 42.2477 14.2569 42.0005C13.6293 41.7544 13.3449 41.0789 13.5858 40.4985L13.5862 40.4975ZM21.9241 18.4925C21.9241 19.5781 21.0113 20.485 19.8541 20.485C18.6968 20.485 17.7841 19.5781 17.7841 18.4925C17.7841 17.4069 18.6968 16.5 19.8541 16.5C21.0113 16.5 21.9241 17.4069 21.9241 18.4925ZM42.4839 18.4925C42.4839 19.5781 41.5712 20.485 40.4139 20.485C39.2567 20.485 38.344 19.5781 38.344 18.4925C38.344 17.4069 39.2567 16.5 40.4139 16.5C41.5712 16.5 42.4839 17.4069 42.4839 18.4925Z" fill="#1FA538" stroke="#1FA538"/>
</g>
</svg>
