<svg width="42" height="43" viewBox="0 0 42 43" fill="none" xmlns="http://www.w3.org/2000/svg">
<path id="Vector" d="M36.1214 5.375H27.5211C27.5211 2.41035 24.4357 0 20.6408 0C16.8459 0 13.7605 2.41035 13.7605 5.375H5.1602C2.31134 5.375 0 7.18066 0 9.40625V38.9688C0 41.1943 2.31134 43 5.1602 43H36.1214C38.9703 43 41.2816 41.1943 41.2816 38.9688V9.40625C41.2816 7.18066 38.9703 5.375 36.1214 5.375ZM10.3204 35.6094C8.8906 35.6094 7.7403 34.7107 7.7403 33.5938C7.7403 32.4768 8.8906 31.5781 10.3204 31.5781C11.7502 31.5781 12.9005 32.4768 12.9005 33.5938C12.9005 34.7107 11.7502 35.6094 10.3204 35.6094ZM10.3204 27.5469C8.8906 27.5469 7.7403 26.6482 7.7403 25.5312C7.7403 24.4143 8.8906 23.5156 10.3204 23.5156C11.7502 23.5156 12.9005 24.4143 12.9005 25.5312C12.9005 26.6482 11.7502 27.5469 10.3204 27.5469ZM10.3204 19.4844C8.8906 19.4844 7.7403 18.5857 7.7403 17.4688C7.7403 16.3518 8.8906 15.4531 10.3204 15.4531C11.7502 15.4531 12.9005 16.3518 12.9005 17.4688C12.9005 18.5857 11.7502 19.4844 10.3204 19.4844ZM20.6408 3.35938C22.0706 3.35938 23.2209 4.25801 23.2209 5.375C23.2209 6.49199 22.0706 7.39062 20.6408 7.39062C19.211 7.39062 18.0607 6.49199 18.0607 5.375C18.0607 4.25801 19.211 3.35938 20.6408 3.35938ZM34.4013 34.2656C34.4013 34.6352 34.0143 34.9375 33.5413 34.9375H18.0607C17.5877 34.9375 17.2007 34.6352 17.2007 34.2656V32.9219C17.2007 32.5523 17.5877 32.25 18.0607 32.25H33.5413C34.0143 32.25 34.4013 32.5523 34.4013 32.9219V34.2656ZM34.4013 26.2031C34.4013 26.5727 34.0143 26.875 33.5413 26.875H18.0607C17.5877 26.875 17.2007 26.5727 17.2007 26.2031V24.8594C17.2007 24.4898 17.5877 24.1875 18.0607 24.1875H33.5413C34.0143 24.1875 34.4013 24.4898 34.4013 24.8594V26.2031ZM34.4013 18.1406C34.4013 18.5102 34.0143 18.8125 33.5413 18.8125H18.0607C17.5877 18.8125 17.2007 18.5102 17.2007 18.1406V16.7969C17.2007 16.4273 17.5877 16.125 18.0607 16.125H33.5413C34.0143 16.125 34.4013 16.4273 34.4013 16.7969V18.1406Z" fill="#1D4486"/>
</svg>
