<svg width="30" height="33" viewBox="0 0 30 33" fill="none" xmlns="http://www.w3.org/2000/svg">
<path id="Vector" d="M26.25 4.125H24.7277C25.6898 5.94773 26.25 8.05729 26.25 10.3125C26.25 17.1362 21.2033 22.6875 15 22.6875C8.79668 22.6875 3.75 17.1362 3.75 10.3125C3.75 8.05729 4.31016 5.94773 5.27227 4.125H3.75C1.68223 4.125 0 5.97545 0 8.25V28.875C0 31.1496 1.68223 33 3.75 33H26.25C28.3178 33 30 31.1496 30 28.875V8.25C30 5.97545 28.3178 4.125 26.25 4.125ZM15 20.625C20.1779 20.625 24.375 16.0082 24.375 10.3125C24.375 4.61678 20.1779 0 15 0C9.82207 0 5.625 4.61678 5.625 10.3125C5.625 16.0082 9.82207 20.625 15 20.625ZM14.9824 10.832L16.95 5.78145C17.1551 5.25486 17.7082 5.01316 18.1822 5.23939C18.658 5.46369 18.8783 6.0702 18.675 6.59291L16.7021 11.6557C17.0936 12.1172 17.3438 12.7263 17.3438 13.4062C17.3438 14.83 16.2943 15.9844 15 15.9844C13.7057 15.9844 12.6562 14.83 12.6562 13.4062C12.6562 11.9896 13.6969 10.8429 14.9824 10.832Z" fill="#1D4486"/>
</svg>
