<?xml version="1.0" standalone="no"?>
<!DOCTYPE svg PUBLIC "-//W3C//DTD SVG 20010904//EN"
 "http://www.w3.org/TR/2001/REC-SVG-20010904/DTD/svg10.dtd">
<svg version="1.0" xmlns="http://www.w3.org/2000/svg"
 width="2201.000000pt" height="548.000000pt" viewBox="0 0 2201.000000 548.000000"
 preserveAspectRatio="xMidYMid meet">

<g transform="translate(0.000000,548.000000) scale(0.100000,-0.100000)"
fill="#000000" stroke="none">
<path d="M3571 5449 c-1686 -46 -2639 -275 -3151 -756 -207 -195 -349 -452
-381 -688 -30 -231 34 -475 183 -692 73 -107 251 -285 382 -381 445 -328 1109
-581 1973 -752 188 -37 558 -100 591 -100 9 0 12 10 10 31 l-3 30 -215 55
c-1263 321 -2022 689 -2213 1073 -40 81 -42 89 -42 175 0 80 4 98 29 150 16
32 58 90 94 128 269 284 924 475 1820 529 253 15 931 6 1186 -16 104 -9 192
-12 196 -8 5 6 305 1027 357 1216 5 16 -12 17 -268 15 -151 0 -397 -5 -548 -9z"/>
<path d="M5895 4559 c-266 -30 -505 -138 -672 -304 -94 -94 -135 -167 -153
-276 -40 -236 113 -430 440 -559 103 -41 318 -89 527 -119 230 -33 309 -56
348 -102 32 -39 40 -70 26 -112 -32 -96 -167 -135 -400 -116 -221 18 -391 101
-438 214 l-18 45 -217 0 -218 0 0 -280 0 -280 168 0 167 0 20 37 c11 20 32 45
47 56 l27 20 188 -46 c220 -54 273 -62 488 -78 325 -23 590 19 784 122 227
122 331 279 331 504 0 200 -80 359 -229 454 -108 69 -367 147 -736 221 -209
41 -295 66 -350 100 -53 33 -60 80 -20 129 43 50 102 66 245 65 195 0 331 -47
507 -175 l81 -59 196 0 196 0 0 250 0 250 -161 0 -161 0 -37 -41 c-55 -63 -96
-64 -244 -5 -64 26 -145 53 -180 61 -142 32 -379 43 -552 24z"/>
<path d="M8720 4529 c-514 -66 -824 -295 -927 -685 -22 -86 -26 -120 -26 -259
-1 -181 11 -249 67 -369 71 -155 180 -277 338 -380 197 -128 417 -195 720
-216 409 -29 776 62 1033 258 258 196 368 455 343 804 -34 469 -370 765 -957
843 -116 16 -481 18 -591 4z m365 -330 c98 -25 184 -145 227 -315 20 -79 23
-114 22 -304 0 -228 -8 -291 -55 -415 -30 -81 -114 -166 -182 -184 -100 -28
-213 2 -277 75 -89 102 -125 250 -125 514 0 214 14 296 74 425 79 169 185 237
316 204z"/>
<path d="M10690 4351 l0 -160 45 -6 c61 -10 127 -54 151 -101 18 -36 19 -68
22 -482 3 -502 1 -525 -63 -580 -33 -29 -89 -52 -127 -52 -16 0 -18 -14 -18
-150 l0 -150 615 0 615 0 0 149 0 149 -47 11 c-58 15 -132 63 -161 105 -21 30
-22 44 -22 204 0 198 -3 192 100 192 117 0 170 -44 170 -141 l0 -59 155 0 155
0 0 320 0 320 -155 0 -155 0 0 -35 c0 -43 -23 -90 -49 -105 -33 -17 -193 -13
-220 6 -23 16 -23 19 -20 168 3 124 7 157 22 179 l17 27 289 0 c191 0 299 -4
322 -12 53 -18 87 -45 116 -96 26 -43 28 -57 32 -169 l3 -123 304 0 304 0 0
375 0 375 -1200 0 -1200 0 0 -159z"/>
<path d="M13410 4135 l0 -375 314 0 314 0 4 163 c3 151 5 164 26 195 45 62
139 84 178 41 18 -20 19 -46 22 -513 2 -331 0 -503 -8 -528 -6 -20 -23 -51
-37 -69 -29 -34 -114 -79 -150 -79 -23 0 -23 -1 -23 -150 l0 -150 630 0 630 0
0 148 0 147 -60 12 c-71 13 -120 42 -158 91 l-27 35 -3 512 c-2 507 -2 512 18
538 42 53 159 26 195 -43 11 -22 15 -68 15 -190 l0 -160 315 0 315 0 0 375 0
375 -1255 0 -1255 0 0 -375z"/>
<path d="M16300 4356 l0 -153 42 -6 c51 -7 115 -51 143 -97 19 -34 20 -53 23
-470 2 -239 0 -458 -3 -487 -11 -90 -74 -156 -161 -169 l-44 -6 0 -149 0 -149
1225 0 1225 0 0 380 0 380 -315 0 -315 0 0 -108 c0 -144 -17 -200 -79 -262
-67 -67 -97 -72 -420 -68 l-261 3 -27 28 -28 27 -3 201 c-2 144 0 205 9 215
18 22 135 19 179 -5 34 -18 78 -85 92 -139 6 -21 10 -22 152 -22 l146 0 0 310
0 310 -154 0 -153 0 -7 -41 c-9 -58 -32 -98 -61 -105 -14 -3 -63 -4 -111 -3
-113 5 -114 7 -114 158 1 137 11 200 36 218 14 10 88 13 327 13 348 0 350 0
413 -73 50 -59 64 -118 64 -269 l0 -128 315 0 315 0 0 410 0 410 -1225 0
-1225 0 0 -154z"/>
<path d="M19170 4355 l0 -155 24 0 c62 0 131 -44 164 -105 15 -27 17 -82 17
-515 0 -444 -1 -488 -18 -517 -21 -39 -93 -83 -147 -90 l-40 -6 0 -148 0 -149
590 0 590 0 0 160 0 160 -27 0 c-40 0 -126 43 -152 76 -19 25 -21 37 -19 123
l3 95 100 63 c55 35 105 62 111 61 17 -4 268 -296 278 -324 13 -32 -18 -75
-65 -90 l-34 -12 -3 -156 -3 -156 641 0 640 0 -2 162 -3 163 -46 6 c-25 4 -55
13 -67 20 -25 16 -672 713 -689 743 -28 49 -23 54 225 218 130 86 253 164 272
174 21 10 67 19 113 22 l77 5 0 163 0 164 -580 0 -580 0 0 -165 0 -165 24 0
c41 0 76 -36 76 -79 0 -52 -31 -79 -247 -210 l-182 -110 -25 20 c-26 20 -26
22 -26 154 0 162 6 174 115 210 l70 24 3 160 2 161 -590 0 -590 0 0 -155z"/>
<path d="M1240 3362 l0 -28 193 -48 c819 -204 1491 -458 1864 -705 140 -93
285 -225 343 -315 126 -192 100 -380 -77 -548 -263 -249 -817 -416 -1628 -490
-216 -20 -1106 -17 -1350 5 -104 9 -192 13 -196 9 -4 -4 -84 -275 -179 -602
-95 -327 -175 -601 -177 -607 -10 -25 869 -14 1382 17 1289 78 2066 290 2537
693 216 186 379 459 418 700 16 96 8 277 -16 367 -76 291 -305 573 -654 804
-495 327 -1223 573 -2164 730 -319 54 -296 52 -296 18z"/>
<path d="M11043 1700 c-232 -42 -375 -201 -361 -402 7 -88 51 -179 114 -238
63 -58 182 -111 349 -155 212 -55 265 -75 302 -109 60 -54 58 -158 -3 -226
-51 -56 -121 -80 -234 -80 -118 0 -184 24 -239 87 -36 40 -81 133 -81 166 0
11 -24 11 -126 1 -69 -7 -128 -15 -131 -18 -9 -9 26 -135 54 -193 32 -69 118
-162 181 -196 122 -66 360 -91 529 -54 260 57 404 264 352 509 -37 175 -157
268 -439 344 -288 76 -334 96 -364 157 -37 77 7 152 107 182 67 20 201 19 260
-1 58 -20 110 -77 127 -140 l13 -46 131 7 c72 4 133 9 134 10 2 2 -2 30 -8 62
-32 157 -145 273 -313 319 -63 18 -283 26 -354 14z"/>
<path d="M12515 1704 c-225 -37 -385 -155 -480 -356 -50 -104 -67 -198 -69
-358 -1 -245 56 -405 194 -541 138 -137 280 -185 519 -176 149 5 220 23 321
80 75 42 179 148 222 227 129 233 124 604 -9 829 -75 126 -221 235 -369 276
-59 16 -271 28 -329 19z m195 -225 c87 -14 140 -39 198 -93 89 -83 132 -210
132 -391 0 -242 -79 -399 -238 -473 -50 -24 -69 -27 -162 -27 -93 0 -112 3
-162 27 -114 53 -195 159 -223 295 -19 87 -19 259 0 346 36 171 152 290 308
316 73 12 74 12 147 0z"/>
<path d="M18432 1700 c-73 -14 -168 -47 -222 -78 -61 -36 -168 -145 -208 -214
-126 -213 -135 -570 -20 -806 22 -47 56 -91 113 -148 132 -134 263 -183 486
-184 325 0 546 158 641 460 21 67 23 94 23 255 0 143 -4 194 -18 245 -63 227
-228 395 -447 456 -67 18 -275 27 -348 14z m284 -236 c109 -33 196 -128 236
-258 18 -58 22 -96 23 -206 0 -83 -5 -156 -14 -190 -34 -136 -111 -238 -219
-288 -50 -24 -69 -27 -162 -27 -93 0 -112 3 -162 27 -113 53 -188 148 -223
283 -19 72 -21 275 -4 355 27 129 113 246 213 291 91 40 207 45 312 13z"/>
<path d="M21295 1704 c-55 -9 -139 -36 -187 -60 -70 -36 -120 -85 -159 -156
-32 -60 -34 -68 -34 -163 0 -121 18 -167 95 -249 64 -68 157 -115 310 -156
254 -69 296 -82 328 -102 130 -80 75 -271 -92 -318 -69 -19 -231 -9 -282 17
-75 40 -138 126 -151 209 -5 30 -8 32 -37 28 -17 -2 -73 -8 -125 -14 -51 -5
-96 -12 -99 -15 -9 -9 20 -118 48 -182 32 -70 113 -162 176 -199 107 -63 275
-91 440 -74 120 13 161 23 238 62 157 79 246 256 217 430 -15 93 -39 146 -92
203 -77 83 -164 123 -418 189 -94 25 -193 57 -221 71 -84 43 -112 114 -70 183
29 48 96 74 199 80 163 9 242 -30 282 -139 l22 -61 131 7 c72 4 132 8 133 9 1
1 -4 32 -12 70 -33 155 -135 259 -305 311 -55 16 -271 29 -335 19z"/>
<path d="M14773 1173 c3 -416 7 -529 19 -573 44 -165 166 -279 337 -316 89
-18 317 -18 399 1 131 31 238 108 289 208 51 102 55 143 60 690 l5 507 -136 0
-136 0 0 -472 c0 -262 -5 -500 -10 -533 -19 -119 -98 -184 -233 -193 -143 -9
-245 34 -295 126 -35 62 -41 168 -42 650 l0 422 -131 0 -130 0 4 -517z"/>
<path d="M16100 1580 l0 -110 210 0 210 0 0 -590 0 -590 130 0 130 0 0 590 0
590 210 0 210 0 0 110 0 110 -550 0 -550 0 0 -110z"/>
<path d="M17400 990 l0 -700 135 0 135 0 0 700 0 700 -135 0 -135 0 0 -700z"/>
<path d="M19500 990 l0 -700 125 0 125 0 2 469 3 469 290 -469 289 -469 133 0
133 0 0 700 0 700 -120 0 -120 0 0 -482 c0 -371 -3 -479 -12 -470 -6 6 -141
222 -298 479 l-287 468 -131 3 -132 3 0 -701z"/>
<path d="M13570 980 l0 -690 490 0 490 0 0 110 0 110 -360 0 -360 0 0 580 0
580 -130 0 -130 0 0 -690z"/>
</g>
</svg>
