<svg id="Layer_1" data-name="Layer 1" xmlns="http://www.w3.org/2000/svg" xmlns:xlink="http://www.w3.org/1999/xlink" viewBox="0 0 120 120"><defs><style>.cls-1,.cls-2,.cls-3,.cls-4{fill:none;}.cls-1,.cls-2,.cls-4{stroke:#084c61;}.cls-1{stroke-miterlimit:10;}.cls-2,.cls-3,.cls-4{stroke-width:4px;}.cls-3{stroke:#3d792c;}.cls-4{stroke-dasharray:3.95 3.95;}.cls-5{clip-path:url(#clip-path);}</style><clipPath id="clip-path"><path class="cls-1" d="M105.76,27.1c-.8-1.14-1.1-1.51-.42-.57-.68-.94-1.38-1.86-2.09-2.75A53.84,53.84,0,0,0,63,3.22c-1,0-2-.08-3-.08h0A56.3,56.3,0,0,0,42.78,5.86l5.15,16.7a38.28,38.28,0,0,1,12-1.92h0a38.63,38.63,0,0,1,31.4,16.18,39.34,39.34,0,0,1,7.42,23.07h17.31c0,.91-.07.45-.07,1.82,0-.9.08-.93.08-1.83A56.91,56.91,0,0,0,105.76,27.1Z"/></clipPath></defs><title>Artboard 14</title><path class="cls-2" d="M105.76,27.1c-.8-1.14-1.1-1.51-.42-.57-.68-.94-1.38-1.86-2.09-2.75A53.84,53.84,0,0,0,63,3.22c-1,0-2-.08-3-.08h0A56.3,56.3,0,0,0,42.78,5.86l5.15,16.7a38.28,38.28,0,0,1,12-1.92h0a38.63,38.63,0,0,1,31.4,16.18,39.34,39.34,0,0,1,7.42,23.07h17.31c0,.91,0,1.54-.07,2.43,0-.9.08-1.53.08-2.44A56.91,56.91,0,0,0,105.76,27.1Z"/><ellipse class="cls-2" cx="59.92" cy="60.05" rx="38.95" ry="39.37"/><ellipse class="cls-3" cx="59.92" cy="60.05" rx="24.69" ry="24.96"/><path class="cls-4" d="M116.31,66.16c-3.13,30.71-32.72,52.74-60.55,50.58C24.74,114.33,1.57,86.93,4,55.59,5.73,33.35,18.56,15.11,37.72,7.23"/><path class="cls-3" d="M66,52.6V51.17a4.46,4.46,0,0,0-4.43-4.49H58a4.46,4.46,0,0,0-4.44,4.49v3.05c0,1.42,1.09,2.58,2.51,3.5l6.76,2.62"/><path class="cls-3" d="M53.59,65.77V67.2A4.46,4.46,0,0,0,58,71.69h3.56A4.46,4.46,0,0,0,66,67.2V64.15c0-1.42-1.16-2.65-2.58-3.57L57,58.06"/><line class="cls-3" x1="60.08" y1="40.55" x2="60.08" y2="47.25"/><line class="cls-3" x1="60.08" y1="70.6" x2="60.08" y2="77.3"/><g class="cls-5"><line class="cls-2" x1="66.95" y1="-3.75" x2="38.65" y2="24.86"/><line class="cls-2" x1="80.17" y1="-0.72" x2="51.86" y2="27.89"/><line class="cls-2" x1="93.38" y1="2.32" x2="65.08" y2="30.93"/><line class="cls-2" x1="106.59" y1="5.36" x2="78.29" y2="33.97"/><line class="cls-2" x1="119.8" y1="8.39" x2="91.5" y2="37"/><line class="cls-2" x1="133.02" y1="11.43" x2="90.53" y2="54.38"/><line class="cls-2" x1="146.23" y1="14.46" x2="92.48" y2="68.8"/></g><path class="cls-1" d="M105.76,27.1c-.8-1.14-1.1-1.51-.42-.57-.68-.94-1.38-1.86-2.09-2.75A53.84,53.84,0,0,0,63,3.22c-1,0-2-.08-3-.08h0A56.3,56.3,0,0,0,42.78,5.86l5.15,16.7a38.28,38.28,0,0,1,12-1.92h0a38.63,38.63,0,0,1,31.4,16.18,39.34,39.34,0,0,1,7.42,23.07h17.31c0,.91-.07.45-.07,1.82,0-.9.08-.93.08-1.83A56.91,56.91,0,0,0,105.76,27.1Z"/><line class="cls-2" x1="35.96" y1="92" x2="29.02" y2="100.94"/></svg>